{"title":"Only.Lovers.Left.Alive.2013.1080p.BRRip.x264.HORiZON-ArtSubs","uid":10384414,"size":2157944165,"categoryP":"video","categoryS":"hd___movies","magnet":"?xt=urn:btih:f7633d705865bed2472097a42648ecd498d9f519&amp;dn=Only.Lovers.Left.Alive.2013.1080p.BRRip.x264.HORiZON-ArtSubs&amp;tr=udp%3A%2F%2Ftracker.openbittorrent.com%3A80&amp;tr=udp%3A%2F%2Fopen.demonii.com%3A1337&amp;tr=udp%3A%2F%2Ftracker.coppersurfer.tk%3A6969&amp;tr=udp%3A%2F%2Fexodus.desync.com%3A6969","seeders":1,"leechers":0,"uploader":"lletaif","files":1,"time":1403120735,"description":"Title:\nOnly Lovers Left Alive\n\n\n\nCountry:\nUSA, 2013\n\n\nLanguage:\nEnglish\n\n\nNo Subtitle\n\n\nIMDB: &lt;a href=&quot;\nhttp://www.imdb.com/title/tt1714915/?ref_=nv_sr_1&quot; rel=&quot;nofollow&quot; target=&quot;_NEW&quot;&gt;\nhttp://www.imdb.com/title/tt1714915/?ref_=nv_sr_1&lt;/a&gt;\n\n\nSynopsis:\nA depressed musician reunites with his lover, though their romance - which has already endured several centuries - is disrupted by the arrival of uncontrollable younger sister.\n\n\nTrivia:\nOfficial Selection Cannes Film Festival 2013\n\n\n\n\nMedia Info:\n\nGeneral\nUnique ID                                : 218102642616522009950089909693412155595 (0xA4150A815E78C13CA34B5530D46A20CB)\nComplete name                            : Only.Lovers.Left.Alive.2013.1080p.BRRip.x264.HORiZON-ArtSubs.mkv\nFormat                                   : Matroska\nFormat version                           : Version 2\nFile size                                : 2.01 GiB\nDuration                                 : 2h 3mn\nOverall bit rate                         : 2 334 Kbps\nEncoded date                             : UTC 2014-06-18 16:32:33\nWriting application                      : DVDFab 9.1.4.0\nWriting library                          : libebml v0.7.8 + libmatroska v0.8.1\n\nVideo\nID                                       : 1\nFormat                                   : AVC\nFormat/Info                              : Advanced Video Codec\nFormat profile                           : &lt;a class=&quot;__cf_email__&quot; href=&quot;/cdn-cgi/l/email-protection&quot; data-cfemail=&quot;c189a8a6a9818df5eff0&quot;&gt;[email&amp;#160;protected]&lt;/a&gt;&lt;script cf-hash='f9e31' type=&quot;text/javascript&quot;&gt;\n/* &lt;![CDATA[ */!function(){try{var t=&quot;currentScript&quot;in document?document.currentScript:function(){for(var t=document.getElementsByTagName(&quot;script&quot;),e=t.length;e--;)if(t[e].getAttribute(&quot;cf-hash&quot;))return t[e]}();if(t&amp;&amp;t.previousSibling){var e,r,n,i,c=t.previousSibling,a=c.getAttribute(&quot;data-cfemail&quot;);if(a){for(e=&quot;&quot;,r=parseInt(a.substr(0,2),16),n=2;a.length-n;n+=2)i=parseInt(a.substr(n,2),16)^r,e+=String.fromCharCode(i);e=document.createTextNode(e),c.parentNode.replaceChild(e,c)}}}catch(u){}}();/* ]]&gt; */&lt;/script&gt;\nFormat settings, CABAC                   : Yes\nFormat settings, ReFrames                : 2 frames\nCodec ID                                 : V_MPEG4/ISO/AVC\nDuration                                 : 2h 3mn\nBit rate                                 : 1 840 Kbps\nWidth                                    : 1 024 pixels\nHeight                                   : 556 pixels\nDisplay aspect ratio                     : 1.85:1\nFrame rate mode                          : Constant\nFrame rate                               : 23.976 fps\nColor space                              : YUV\nChroma subsampling                       : 4:2:0\nBit depth                                : 8 bits\nScan type                                : Progressive\nBits/(Pixel*Frame)                       : 0.135\nStream size                              : 1.58 GiB (79%)\nWriting library                          : x264 core\nDefault                                  : Yes\nForced                                   : No\nColor primaries                          : BT.601 NTSC\nTransfer characteristics                 : BT.709\nMatrix coefficients                      : BT.601\n\nAudio\nID                                       : 2\nFormat                                   : AC-3\nFormat/Info                              : Audio Coding 3\nMode extension                           : CM (complete main)\nFormat settings, Endianness              : Big\nCodec ID                                 : A_AC3\nDuration                                 : 2h 3mn\nBit rate mode                            : Constant\nBit rate                                 : 448 Kbps\nChannel(s)                               : 6 channels\nChannel positions                        : Front: L C R, Side: L R, LFE\nSampling rate                            : 48.0 KHz\nBit depth                                : 16 bits\nCompression mode                         : Lossy\nStream size                              : 395 MiB (19%)\nLanguage                                 : English\nDefault                                  : Yes\nForced                                   : No\n\n","torrent":{"xt":"urn:btih:f7633d705865bed2472097a42648ecd498d9f519","amp;dn":"Only.Lovers.Left.Alive.2013.1080p.BRRip.x264.HORiZON-ArtSubs","amp;tr":["udp%3A%2F%2Ftracker.openbittorrent.com%3A80","udp%3A%2F%2Fopen.demonii.com%3A1337","udp%3A%2F%2Ftracker.coppersurfer.tk%3A6969","udp%3A%2F%2Fexodus.desync.com%3A6969"],"infoHash":"f7633d705865bed2472097a42648ecd498d9f519","infoHashBuffer":{"type":"Buffer","data":[247,99,61,112,88,101,190,210,71,32,151,164,38,72,236,212,152,217,245,25]},"announce":[],"urlList":[]}}